<?xml version="1.0" standalone="no"?>
<!DOCTYPE svg PUBLIC "-//W3C//DTD SVG 20010904//EN"
 "http://www.w3.org/TR/2001/REC-SVG-20010904/DTD/svg10.dtd">
<svg version="1.0" xmlns="http://www.w3.org/2000/svg"
 width="3920.000000pt" height="3920.000000pt" viewBox="0 0 3920.000000 3920.000000"
 preserveAspectRatio="xMidYMid meet">
<metadata>
Created by potrace 1.11, written by Peter Selinger 2001-2013
</metadata>
<g transform="translate(0.000000,3920.000000) scale(0.100000,-0.100000)"
fill="#000000" stroke="none">
<path d="M0 19600 l0 -15400 19600 0 19600 0 0 15400 0 15400 -19600 0 -19600
0 0 -15400z m18930 7999 c184 -5 362 -11 395 -14 266 -22 343 -30 513 -51
1246 -158 2377 -569 3272 -1189 167 -116 194 -136 357 -264 597 -469 1113
-1068 1518 -1761 131 -224 338 -644 430 -875 283 -703 440 -1451 496 -2355 15
-238 15 -876 0 -1095 -67 -1000 -272 -1812 -647 -2555 -647 -1286 -1596 -2265
-2885 -2978 -661 -365 -1402 -637 -2224 -817 -408 -89 -705 -132 -1220 -177
-92 -8 -966 -12 -2958 -15 l-2828 -4 2 7058 c1 3882 5 7068 10 7080 l8 21
2713 1 c1492 0 2864 -4 3048 -10z"/>
<path d="M15670 20530 l0 -4801 1223 4 c1319 4 1337 5 1806 62 1242 153 2208
507 2976 1089 683 518 1202 1294 1434 2141 72 265 119 526 158 880 22 206 25
998 5 1225 -72 785 -237 1371 -550 1955 -122 229 -291 477 -460 674 -131 153
-334 348 -517 497 -113 91 -334 237 -565 373 -100 59 -435 217 -540 256 -340
124 -439 155 -690 219 -387 98 -727 154 -1235 203 -146 14 -372 17 -1607 20
l-1438 4 0 -4801z"/>
</g>
</svg>
