<?xml version="1.0" standalone="no"?>
<!DOCTYPE svg PUBLIC "-//W3C//DTD SVG 20010904//EN"
 "http://www.w3.org/TR/2001/REC-SVG-20010904/DTD/svg10.dtd">
<svg version="1.0" xmlns="http://www.w3.org/2000/svg"
 width="1024.000000pt" height="1024.000000pt" viewBox="0 0 1024.000000 1024.000000"
 preserveAspectRatio="xMidYMid meet">
<metadata>
Created by potrace 1.11, written by Peter Selinger 2001-2013
</metadata>
<g transform="translate(0.000000,1024.000000) scale(0.100000,-0.100000)"
fill="#000000" stroke="none">
<path d="M0 5120 l0 -5120 5120 0 5120 0 0 5120 0 5120 -5120 0 -5120 0 0
-5120z m1295 2870 c442 -63 689 -308 771 -765 26 -141 26 -480 0 -620 -49
-271 -161 -483 -324 -610 -119 -93 -296 -162 -477 -184 -49 -6 -222 -11 -382
-11 l-293 0 0 1100 0 1100 318 0 c174 0 349 -5 387 -10z m2104 -52 c61 -187
680 -2097 686 -2115 l6 -23 -143 0 -144 0 -43 138 c-23 75 -63 201 -87 280
l-45 142 -438 0 -437 0 -43 -137 c-23 -76 -63 -202 -87 -280 l-45 -143 -135 0
c-79 0 -134 4 -134 10 0 7 389 1205 686 2113 l26 77 178 0 178 0 21 -62z
m1907 47 c303 -52 475 -181 547 -410 31 -100 30 -282 -2 -375 -64 -185 -213
-324 -425 -395 l-84 -29 324 -483 c178 -265 324 -485 324 -488 0 -3 -73 -5
-163 -5 l-163 0 -300 468 -299 467 -153 3 -152 3 0 -471 0 -470 -135 0 -135 0
0 1100 0 1100 364 0 c280 0 384 -3 452 -15z m1384 -1085 l0 -1100 -135 0 -135
0 0 1100 0 1100 135 0 135 0 0 -1100z m1188 1083 c-50 -58 -815 -961 -826
-975 -12 -15 41 -87 442 -607 251 -324 456 -592 456 -596 0 -3 -78 -4 -172 -3
l-173 3 -297 390 c-164 215 -366 478 -448 587 l-150 196 430 511 431 511 161
0 c153 0 160 -1 146 -17z m-4483 -3107 c143 -39 237 -97 342 -210 188 -205
286 -562 270 -981 -23 -577 -238 -939 -616 -1036 -85 -22 -260 -27 -346 -10
-339 67 -553 337 -632 796 -26 152 -23 510 5 665 82 450 294 713 632 785 82
18 263 13 345 -9z m5800 0 c138 -30 261 -84 371 -161 96 -69 96 -61 3 -159
l-81 -86 -61 44 c-164 116 -354 166 -547 145 -242 -27 -375 -157 -357 -348 14
-159 132 -245 487 -357 330 -104 430 -153 541 -263 125 -125 164 -225 163
-421 -1 -107 -4 -135 -26 -197 -37 -103 -72 -159 -149 -235 -119 -118 -303
-191 -519 -206 -214 -16 -432 16 -598 86 -83 36 -215 118 -254 159 l-28 29 81
92 81 93 32 -26 c170 -140 352 -205 574 -205 348 0 552 188 512 471 -25 172
-140 261 -465 360 -299 91 -457 169 -570 283 -105 106 -145 203 -145 351 0
157 45 263 159 375 104 103 231 163 399 190 81 13 314 5 397 -14z m-7841 -973
c215 -529 392 -956 394 -947 2 8 -1 77 -7 152 -19 236 -32 818 -29 1297 l3
460 128 3 127 3 0 -1106 0 -1105 -193 0 -193 0 -384 955 c-211 525 -385 953
-387 951 -3 -2 0 -71 6 -153 19 -255 30 -718 31 -1245 l0 -508 -130 0 -130 0
0 1105 0 1105 187 -2 186 -3 391 -962z m4590 959 c2 -4 -2 -57 -10 -117 -7
-61 -13 -113 -14 -117 0 -5 -151 -8 -335 -8 l-335 0 0 -980 0 -980 -135 0
-135 0 0 980 0 980 -345 0 -345 0 0 125 0 125 824 0 c454 0 827 -3 830 -8z
m1786 -18 c0 -25 -17 -149 -26 -191 l-4 -23 -470 0 -470 0 0 -370 0 -370 410
0 411 0 -3 -112 -3 -113 -407 -3 -408 -2 0 -390 0 -390 500 0 500 0 0 -110 0
-110 -640 0 -640 0 0 1098 c0 604 3 1102 7 1105 3 4 285 7 625 7 l618 0 0 -26z"/>
<path d="M865 7769 c-3 -8 -4 -403 -3 -879 l3 -865 185 1 c209 2 271 12 387
69 123 61 225 181 280 333 44 120 63 235 70 422 17 528 -129 821 -452 905 -86
23 -462 34 -470 14z"/>
<path d="M3156 7648 c-46 -150 -315 -1018 -322 -1040 -5 -17 16 -18 355 -18
239 0 361 3 361 10 0 11 -350 1153 -355 1158 -2 2 -19 -47 -39 -110z"/>
<path d="M4760 7370 l0 -410 178 0 c392 0 528 51 610 230 21 45 27 75 30 162
7 157 -19 236 -100 315 -91 88 -197 112 -505 113 l-213 0 0 -410z"/>
<path d="M3120 4659 c-128 -16 -254 -106 -318 -227 -41 -76 -76 -186 -98 -308
-26 -140 -26 -586 -1 -721 70 -370 227 -543 494 -543 226 0 378 120 456 361
50 153 61 252 61 539 0 280 -10 380 -56 530 -84 275 -271 403 -538 369z"/>
</g>
</svg>
